<svg xmlns="http://www.w3.org/2000/svg" version="1.1" xmlns:xlink="http://www.w3.org/1999/xlink" viewBox="0 0 7.060682673486048 6.922744776154281"><g transform="matrix(1,0,0,1,0.5826087927977119,4.26597348335657)"><rect width="7.060682673486048" height="7.060682673486048" x="-0.5826087927977119" y="-4.334942432022453" fill="#efe0e2"></rect><g clip-path="url(#SvgjsClipPath1002)"><g clip-path="url(#SvgjsClipPath100076b27e4e-3e08-4dfa-a3a2-eea7eabfc27e)"><path d=" M 4.168482526496966 -3.568913478599078 L 1.345501410625663 -3.568913478599078 L 1.345501410625663 -0.7459323627277743 L 4.168482526496966 -0.7459323627277743 Z M 1.2310501986658835 -3.6833646905588573 L 1.2310501986658835 -0.6314811507679949 L 4.282933738456746 -0.6314811507679949 L 4.282933738456746 -3.6833646905588573 Z" fill="#382d5e" transform="matrix(1,0,0,1,0,0)" fill-rule="evenodd"></path></g><g clip-path="url(#SvgjsClipPath100076b27e4e-3e08-4dfa-a3a2-eea7eabfc27e)"><path d=" M 4.549963677264961 -3.187432327831083 L 1.7269825613936576 -3.187432327831083 L 1.7269825613936576 -0.36445121195977936 L 4.549963677264961 -0.36445121195977936 Z M 1.6125313494338782 -3.301883539790863 L 1.6125313494338782 -0.25 L 4.664414889224741 -0.25 L 4.664414889224741 -3.301883539790863 Z" fill="#382d5e" transform="matrix(1,0,0,1,0,0)" fill-rule="evenodd"></path></g><path d=" M 3.3072414501177705 -2.2906774537296837 C 3.266446113247137 -2.348956506402017 3.2296574612477262 -2.390298209391454 3.1968754941195385 -2.4147025626979937 C 3.1640935269913513 -2.4391069160045333 3.1287618513087487 -2.4565906318062334 3.090880467071732 -2.467153710103094 C 3.052999082834715 -2.4777167883999542 3.0132964782016876 -2.4829983275483847 2.97177265317265 -2.4829983275483847 C 2.910579647866699 -2.4829983275483847 2.8537575715111743 -2.469339174578306 2.8013064241060737 -2.44202086863815 C 2.7488552767009735 -2.4147025626979937 2.7035068888403138 -2.3775496666193807 2.665261260524095 -2.330562180402312 C 2.627015632207876 -2.283574694185243 2.596965495673704 -2.2289380823049303 2.5751108509215785 -2.1666523447613733 C 2.5532562061694537 -2.1043666072178167 2.542328883793391 -2.0382563068426385 2.542328883793391 -1.9683214436358378 C 2.542328883793391 -1.8976580922706332 2.5530740841298525 -1.8311835478162528 2.5745644848027758 -1.7688978102726962 C 2.5960548854756986 -1.7066120727291394 2.6257407779306687 -1.6521575828884276 2.6636221621676857 -1.605534340750561 C 2.7015035464047026 -1.558911098612694 2.746669812225761 -1.5219403245736822 2.7991209596308613 -1.494622018633526 C 2.8515721070359614 -1.4673037126933695 2.9091226715498912 -1.4536445597232912 2.97177265317265 -1.4536445597232912 C 3.0154819426769 -1.4536445597232912 3.0562772795475337 -1.4607473192677318 3.09415866378455 -1.474952838356613 C 3.132040048021567 -1.4891583574454945 3.1664611135061644 -1.507916927524402 3.1974218602383413 -1.5312285485933355 C 3.228382606970519 -1.554540169662269 3.2555187908710743 -1.5813121094836222 3.2788304119400076 -1.611544368057395 C 3.3021420330089413 -1.6417766266311684 3.3203542369690453 -1.6732837394821487 3.3334670238203206 -1.7060657066103364 L 3.6853268043295353 -1.6077198052257733 C 3.662743671419006 -1.5363279657021647 3.629597460211616 -1.470217665326986 3.5858881707073658 -1.4093889041002379 C 3.5421788812031156 -1.3485601428734895 3.489545611758414 -1.295926873428788 3.427988362373262 -1.2514890957661338 C 3.366431112988109 -1.2070513181034794 3.297224737939713 -1.172083886500079 3.220369237228073 -1.146586800955933 C 3.143513736516433 -1.1210897154117874 3.0606482084979585 -1.1083411726397143 2.97177265317265 -1.1083411726397143 C 2.89673837285702 -1.1083411726397143 2.8249822892542094 -1.1185400068573728 2.756504402364217 -1.1389376752926892 C 2.688026515474225 -1.159335343728006 2.624101679574259 -1.1881106259849707 2.5647298946643193 -1.2252635220635837 C 2.505358109754379 -1.2624164181421966 2.4514499860324706 -1.307218439884053 2.403005523498593 -1.359669587289153 C 2.354561060964716 -1.4121207346942535 2.3132193579752793 -1.470217665326986 2.278980414530283 -1.533960379187351 C 2.244741471085287 -1.597703093047716 2.218151653303535 -1.666180979937708 2.1992109611850266 -1.739394039857327 C 2.180270269066518 -1.8126070997769463 2.170799923007264 -1.8889162343697834 2.170799923007264 -1.9683214436358378 C 2.170799923007264 -2.087065013455718 2.1915618355217825 -2.198341579651955 2.2330856605508207 -2.3021511422245493 C 2.2746094855798584 -2.4059607047971436 2.3314315619353834 -2.4966574805184627 2.4035518896173964 -2.574241469388507 C 2.4756722172994094 -2.651825458258551 2.560358965713894 -2.7130184635645014 2.657612134860851 -2.757820485306358 C 2.754865304007808 -2.8026225070482145 2.8595854767784075 -2.825023517919143 2.97177265317265 -2.825023517919143 C 3.061376696656363 -2.825023517919143 3.1367752210511943 -2.8139140735034793 3.197968226357145 -2.791695184672152 C 3.259161231663095 -2.7694762958408248 3.326546386315481 -2.7255848842969734 3.4001236903143024 -2.660020950040598 L 3.644895711538104 -2.660020950040598 L 3.644895711538104 -2.2906774537296837 L 3.3072414501177705 -2.2906774537296837" fill="#382d5e" transform="matrix(1,0,0,1,0,0)" fill-rule="nonzero"></path></g><g><path d=" M 1.7349785156249995 0.011249999999999982 Q 1.8069785156249996 0.022499999999999964 1.8474785156249998 0.04049999999999998 Q 1.8609785156249998 0.04499999999999993 1.8647285156249995 0.05174999999999996 Q 1.8684785156249997 0.058499999999999885 1.8714785156249998 0.07499999999999996 L 1.8894785156249996 0.2835 Q 1.8894785156249996 0.2879999999999999 1.8819785156249997 0.2895 Q 1.8744785156249997 0.2909999999999999 1.8729785156249996 0.2849999999999999 Q 1.8219785156249997 0.16649999999999998 1.7364785156249996 0.10199999999999998 Q 1.6509785156249996 0.03749999999999998 1.5384785156249996 0.03749999999999998 Q 1.3899785156249997 0.03749999999999998 1.3089785156249998 0.1469999999999999 Q 1.2279785156249996 0.25649999999999995 1.2279785156249996 0.44099999999999995 Q 1.2279785156249996 0.579 1.2722285156249997 0.693 Q 1.3164785156249996 0.8069999999999999 1.3967285156249996 0.8737499999999999 Q 1.4769785156249997 0.9405 1.5789785156249998 0.9405 Q 1.6749785156249997 0.9405 1.7507285156249996 0.8767499999999999 Q 1.8264785156249996 0.813 1.8864785156249997 0.6824999999999999 Q 1.8879785156249995 0.6764999999999999 1.8962285156249996 0.6779999999999999 Q 1.9044785156249997 0.6795 1.9044785156249997 0.6839999999999999 L 1.8819785156249997 0.8879999999999999 Q 1.8789785156249996 0.9059999999999999 1.8752285156249997 0.91125 Q 1.8714785156249998 0.9165 1.8579785156249997 0.9225 Q 1.7244785156249995 0.972 1.5834785156249995 0.972 Q 1.4004785156249997 0.972 1.2774785156249997 0.89925 Q 1.1544785156249997 0.8265 1.0967285156249997 0.71475 Q 1.0389785156249995 0.603 1.0389785156249995 0.48149999999999993 Q 1.0389785156249995 0.33899999999999997 1.1162285156249996 0.22949999999999993 Q 1.1934785156249996 0.12 1.3217285156249996 0.05999999999999994 Q 1.4499785156249996 -1.1102230246251565e-16 1.5969785156249996 -1.1102230246251565e-16 Q 1.6629785156249997 -1.1102230246251565e-16 1.7349785156249995 0.011249999999999982 M 2.279488037109375 0.89925 Q 2.2869880371093747 0.9209999999999999 2.3064880371093746 0.9285 Q 2.325988037109375 0.9359999999999999 2.3694880371093747 0.9359999999999999 Q 2.372488037109375 0.9359999999999999 2.372488037109375 0.945 Q 2.372488037109375 0.954 2.3694880371093747 0.954 Q 2.3229880371093747 0.954 2.2974880371093747 0.9525 L 2.195488037109375 0.951 L 2.0979880371093746 0.9525 Q 2.0709880371093745 0.954 2.0229880371093745 0.954 Q 2.019988037109375 0.954 2.019988037109375 0.945 Q 2.019988037109375 0.9359999999999999 2.0229880371093745 0.9359999999999999 Q 2.066488037109375 0.9359999999999999 2.0867380371093747 0.9285 Q 2.1069880371093745 0.9209999999999999 2.114488037109375 0.89925 Q 2.1219880371093747 0.8775 2.1219880371093747 0.8325 L 2.1219880371093747 0.37349999999999994 Q 2.1219880371093747 0.3284999999999999 2.114488037109375 0.3075 Q 2.1069880371093745 0.2865 2.0867380371093747 0.27825 Q 2.066488037109375 0.2699999999999999 2.0229880371093745 0.2699999999999999 Q 2.019988037109375 0.2699999999999999 2.019988037109375 0.2609999999999999 Q 2.019988037109375 0.2519999999999999 2.0229880371093745 0.2519999999999999 L 2.0979880371093746 0.25349999999999995 Q 2.1579880371093747 0.25649999999999995 2.195488037109375 0.25649999999999995 Q 2.2359880371093745 0.25649999999999995 2.2989880371093747 0.25349999999999995 L 2.3694880371093747 0.2519999999999999 Q 2.372488037109375 0.2519999999999999 2.372488037109375 0.2609999999999999 Q 2.372488037109375 0.2699999999999999 2.3694880371093747 0.2699999999999999 Q 2.3274880371093745 0.2699999999999999 2.3072380371093746 0.2789999999999999 Q 2.2869880371093747 0.2879999999999999 2.279488037109375 0.30974999999999997 Q 2.2719880371093746 0.3314999999999999 2.2719880371093746 0.37649999999999995 L 2.2719880371093746 0.8325 Q 2.2719880371093746 0.8775 2.279488037109375 0.89925 M 3.272455810546875 0.945 Q 3.272455810546875 0.954 3.2694558105468747 0.954 Q 3.2319558105468746 0.954 3.2109558105468747 0.9525 L 3.132955810546875 0.951 L 3.0429558105468746 0.9525 Q 3.0204558105468746 0.954 2.9829558105468745 0.954 Q 2.9799558105468744 0.954 2.9799558105468744 0.945 Q 2.9799558105468744 0.9359999999999999 2.9829558105468745 0.9359999999999999 Q 3.0174558105468745 0.9359999999999999 3.0339558105468747 0.9269999999999999 Q 3.0504558105468744 0.9179999999999999 3.0564558105468747 0.89625 Q 3.062455810546875 0.8744999999999999 3.062455810546875 0.8294999999999999 L 3.062455810546875 0.5309999999999999 Q 3.062455810546875 0.3899999999999999 3.0212058105468746 0.33675 Q 2.9799558105468744 0.2835 2.907955810546875 0.2835 Q 2.8479558105468747 0.2835 2.7962058105468746 0.3135 Q 2.744455810546875 0.3434999999999999 2.6994558105468744 0.4109999999999999 L 2.6994558105468744 0.8294999999999999 Q 2.6994558105468744 0.8744999999999999 2.7047058105468746 0.89625 Q 2.709955810546875 0.9179999999999999 2.7257058105468746 0.9269999999999999 Q 2.7414558105468747 0.9359999999999999 2.7744558105468746 0.9359999999999999 Q 2.7774558105468747 0.9359999999999999 2.7774558105468747 0.945 Q 2.7774558105468747 0.954 2.7744558105468746 0.954 Q 2.7309558105468748 0.954 2.7054558105468747 0.9525 L 2.6184558105468745 0.951 L 2.5359558105468745 0.9525 Q 2.5119558105468744 0.954 2.4684558105468746 0.954 Q 2.4654558105468745 0.954 2.4654558105468745 0.945 Q 2.4654558105468745 0.9359999999999999 2.4684558105468746 0.9359999999999999 Q 2.5029558105468745 0.9359999999999999 2.5202058105468748 0.9285 Q 2.5374558105468745 0.9209999999999999 2.5434558105468748 0.89925 Q 2.5494558105468745 0.8775 2.5494558105468745 0.8325 L 2.5494558105468745 0.37349999999999994 Q 2.5494558105468745 0.3284999999999999 2.5434558105468748 0.3075 Q 2.5374558105468745 0.2865 2.521705810546875 0.27825 Q 2.5059558105468747 0.2699999999999999 2.4729558105468747 0.2699999999999999 Q 2.4684558105468746 0.2699999999999999 2.4684558105468746 0.2609999999999999 Q 2.4684558105468746 0.2519999999999999 2.4729558105468747 0.2519999999999999 L 2.5704558105468744 0.25349999999999995 L 2.6709558105468747 0.2519999999999999 Q 2.6889558105468745 0.2519999999999999 2.6942058105468747 0.25725 Q 2.6994558105468744 0.26249999999999996 2.6994558105468744 0.28049999999999997 L 2.6994558105468744 0.363 Q 2.756455810546875 0.29699999999999993 2.8224558105468747 0.26549999999999996 Q 2.8884558105468745 0.23399999999999999 2.967955810546875 0.23399999999999999 Q 3.0729558105468744 0.23399999999999999 3.141955810546875 0.2932499999999999 Q 3.2109558105468747 0.3524999999999999 3.2109558105468747 0.49649999999999994 L 3.2109558105468747 0.8325 Q 3.2109558105468747 0.8775 3.2154558105468745 0.89925 Q 3.2199558105468746 0.9209999999999999 3.2319558105468746 0.9285 Q 3.2439558105468747 0.9359999999999999 3.2694558105468747 0.9359999999999999 Q 3.272455810546875 0.9359999999999999 3.272455810546875 0.945 M 3.6369821777343745 0.9554999999999999 Q 3.6189821777343747 0.954 3.5919821777343746 0.9525 Q 3.5649821777343744 0.951 3.5304821777343744 0.951 L 3.4329821777343748 0.9525 Q 3.4059821777343746 0.954 3.3579821777343746 0.954 Q 3.3549821777343745 0.954 3.3549821777343745 0.945 Q 3.3549821777343745 0.9359999999999999 3.3579821777343746 0.9359999999999999 Q 3.4029821777343745 0.9359999999999999 3.423232177734375 0.9285 Q 3.4434821777343747 0.9209999999999999 3.4502321777343745 0.89925 Q 3.4569821777343748 0.8775 3.4569821777343748 0.8325 L 3.4569821777343748 0.37349999999999994 Q 3.4569821777343748 0.3284999999999999 3.4502321777343745 0.3075 Q 3.4434821777343747 0.2865 3.423232177734375 0.27825 Q 3.4029821777343745 0.2699999999999999 3.3609821777343747 0.2699999999999999 Q 3.3564821777343745 0.2699999999999999 3.3564821777343745 0.2609999999999999 Q 3.3564821777343745 0.2519999999999999 3.3609821777343747 0.2519999999999999 L 3.4329821777343748 0.25349999999999995 Q 3.492982177734375 0.25649999999999995 3.5304821777343744 0.25649999999999995 Q 3.576982177734375 0.25649999999999995 3.623482177734375 0.2519999999999999 Q 3.6834821777343745 0.249 3.7134821777343747 0.249 Q 3.8394821777343746 0.249 3.9309821777343745 0.29399999999999993 Q 4.022482177734375 0.33899999999999997 4.070482177734375 0.4185 Q 4.118482177734375 0.49799999999999994 4.118482177734375 0.5985 Q 4.118482177734375 0.702 4.068982177734375 0.7845 Q 4.019482177734375 0.867 3.9309821777343745 0.9135 Q 3.8424821777343747 0.96 3.7299821777343745 0.96 Q 3.6879821777343746 0.96 3.6369821777343745 0.9554999999999999 M 3.8844821777343745 0.846 Q 3.9459821777343747 0.7649999999999999 3.9459821777343747 0.615 Q 3.9459821777343747 0.4695 3.8844821777343745 0.37424999999999997 Q 3.8229821777343744 0.2789999999999999 3.6999821777343747 0.2789999999999999 Q 3.6489821777343745 0.2789999999999999 3.6272321777343746 0.29999999999999993 Q 3.6054821777343746 0.32099999999999995 3.6054821777343746 0.37649999999999995 L 3.6054821777343746 0.816 Q 3.6054821777343746 0.8775 3.6272321777343746 0.90225 Q 3.6489821777343745 0.9269999999999999 3.7134821777343747 0.9269999999999999 Q 3.8229821777343744 0.9269999999999999 3.8844821777343745 0.846 M 4.940507080078125 0.2609999999999999 Q 4.940507080078125 0.2699999999999999 4.937507080078125 0.2699999999999999 Q 4.892507080078125 0.2699999999999999 4.855757080078124 0.30599999999999994 Q 4.819007080078125 0.34199999999999997 4.798007080078125 0.4049999999999999 L 4.586507080078125 0.9525 Q 4.550507080078125 1.0514999999999999 4.496507080078125 1.128 Q 4.442507080078125 1.2045 4.384007080078125 1.2345 Q 4.375007080078125 1.2405 4.353257080078125 1.22325 Q 4.331507080078125 1.206 4.318007080078124 1.1804999999999999 Q 4.303007080078125 1.146 4.303007080078125 1.1175 Q 4.303007080078125 1.092 4.315007080078125 1.089 Q 4.399007080078125 1.077 4.458257080078124 1.04625 Q 4.517507080078125 1.0154999999999998 4.552007080078124 0.951 L 4.2760070800781245 0.37649999999999995 Q 4.246007080078124 0.3135 4.223507080078124 0.29174999999999995 Q 4.201007080078124 0.2699999999999999 4.162007080078125 0.2699999999999999 Q 4.157507080078124 0.2699999999999999 4.157507080078124 0.2609999999999999 Q 4.157507080078124 0.2519999999999999 4.162007080078125 0.2519999999999999 L 4.228007080078124 0.25349999999999995 Q 4.285007080078125 0.25649999999999995 4.337507080078125 0.25649999999999995 Q 4.375007080078125 0.25649999999999995 4.432007080078125 0.25349999999999995 L 4.498007080078125 0.2519999999999999 Q 4.502507080078125 0.2519999999999999 4.502507080078125 0.2609999999999999 Q 4.502507080078125 0.2699999999999999 4.498007080078125 0.2699999999999999 Q 4.420007080078125 0.2699999999999999 4.420007080078125 0.31499999999999995 Q 4.420007080078125 0.3344999999999999 4.433507080078124 0.36149999999999993 L 4.625507080078124 0.7515 L 4.757507080078125 0.3959999999999999 Q 4.7695070800781245 0.363 4.7695070800781245 0.33899999999999997 Q 4.7695070800781245 0.2699999999999999 4.6765070800781245 0.2699999999999999 Q 4.672007080078124 0.2699999999999999 4.672007080078124 0.2609999999999999 Q 4.672007080078124 0.2519999999999999 4.6765070800781245 0.2519999999999999 L 4.729007080078125 0.25349999999999995 Q 4.777007080078125 0.25649999999999995 4.823507080078125 0.25649999999999995 Q 4.849007080078125 0.25649999999999995 4.882007080078124 0.25349999999999995 L 4.937507080078125 0.2519999999999999 Q 4.940507080078125 0.2519999999999999 4.940507080078125 0.2609999999999999" fill="#382d5e" fill-rule="nonzero"></path></g><g><path d=" M 0.177 2.0659125 Q 0.1665 2.0651625 0.150375 2.0644125 Q 0.13425 2.0636625 0.11475 2.0636625 L 0.06375 2.0644125 Q 0.05025 2.0651625 0.02625 2.0651625 Q 0.02475 2.0651625 0.02475 2.0606625 Q 0.02475 2.0561625 0.02625 2.0561625 Q 0.05475 2.0561625 0.067875 2.0524125 Q 0.081 2.0486625 0.085875 2.0377875 Q 0.09075 2.0269125 0.09075 2.0044125 L 0.09075 1.6571625 Q 0.09075 1.6346625000000001 0.08625000000000001 1.6241625 Q 0.08175 1.6136625 0.068625 1.6095375 Q 0.0555 1.6054125 0.027 1.6054125 Q 0.025500000000000002 1.6054125 0.025500000000000002 1.6009125 Q 0.025500000000000002 1.5964125 0.027 1.5964125 L 0.0645 1.5971625 Q 0.096 1.5986625 0.11475 1.5986625 Q 0.14325000000000002 1.5986625 0.171 1.5964125 Q 0.20400000000000001 1.5949125 0.21675 1.5949125 Q 0.29475 1.5949125 0.35475 1.6249125 Q 0.41475 1.6549125 0.448125 1.7066625 Q 0.4815 1.7584125 0.4815 1.8229125 Q 0.4815 1.8956625 0.447375 1.9515375 Q 0.41325 2.0074125 0.35475 2.0377875 Q 0.29625 2.0681625 0.22725 2.0681625 Q 0.20550000000000002 2.0681625 0.177 2.0659125 M 0.32625 2.0317875 Q 0.37275 2.0066625 0.398625 1.9575375 Q 0.4245 1.9084125 0.4245 1.8394125 Q 0.4245 1.7741625 0.39975 1.7209125 Q 0.375 1.6676625 0.32925 1.6369125 Q 0.28350000000000003 1.6061625 0.2235 1.6061625 Q 0.19125 1.6061625 0.173625 1.6099125 Q 0.156 1.6136625 0.14775 1.6249125 Q 0.1395 1.6361625 0.1395 1.6586625 L 0.1395 1.9961625 Q 0.1395 2.0186625 0.145875 2.0314125 Q 0.15225 2.0441625 0.169875 2.0505375 Q 0.1875 2.0569125 0.21975 2.0569125 Q 0.27975 2.0569125 0.32625 2.0317875 M 0.6371092529296875 1.6744125 Q 0.6341092529296875 1.6744125 0.6333592529296874 1.6710375 Q 0.6326092529296875 1.6676625 0.6348592529296875 1.6661625 Q 0.6596092529296875 1.6526625 0.7166092529296875 1.6196625 Q 0.7301092529296874 1.6106625 0.7402342529296875 1.6046624999999999 Q 0.7503592529296874 1.5986625 0.7571092529296874 1.5949125 Q 0.7601092529296875 1.5934125 0.7747342529296875 1.5982875 Q 0.7893592529296874 1.6031625 0.7998592529296875 1.6091625 Q 0.8103592529296875 1.6151625 0.8051092529296875 1.6159125 Q 0.7586092529296875 1.6271625 0.7199842529296875 1.6410375 Q 0.6813592529296875 1.6549125 0.6386092529296875 1.6736625 L 0.6371092529296875 1.6744125 M 0.8261092529296874 2.0246625 Q 0.8283592529296875 2.0246625 0.8302342529296874 2.0272875 Q 0.8321092529296874 2.0299125 0.8306092529296875 2.0321625 Q 0.7773592529296874 2.0741625 0.7143592529296875 2.0741625 Q 0.6611092529296875 2.0741625 0.6232342529296875 2.0490375 Q 0.5853592529296875 2.0239125000000002 0.5662342529296874 1.9834125 Q 0.5471092529296875 1.9429125 0.5471092529296875 1.8964125 Q 0.5471092529296875 1.8446625 0.5718592529296874 1.8007875 Q 0.5966092529296875 1.7569124999999999 0.6378592529296875 1.7314125 Q 0.6791092529296875 1.7059125 0.7278592529296875 1.7059125 Q 0.7781092529296875 1.7059125 0.8036092529296874 1.7336624999999999 Q 0.8291092529296875 1.7614125 0.8291092529296875 1.8086625 Q 0.8291092529296875 1.8161625 0.8272342529296874 1.8195375 Q 0.8253592529296875 1.8229125 0.8201092529296874 1.8229125 L 0.6018592529296874 1.8236625 Q 0.5973592529296875 1.8446625 0.5973592529296875 1.8701625 Q 0.5973592529296875 1.9211624999999999 0.6146092529296875 1.9620375 Q 0.6318592529296875 2.0029125 0.6644842529296875 2.0261625 Q 0.6971092529296874 2.0494125 0.7413592529296875 2.0494125 Q 0.7916092529296874 2.0494125 0.8253592529296875 2.0246625 L 0.8261092529296874 2.0246625 M 0.6419842529296874 1.7452874999999999 Q 0.6153592529296874 1.7696625 0.6041092529296874 1.8124125 L 0.7766092529296875 1.8094125 Q 0.7773592529296874 1.7666625 0.7589842529296875 1.7437875 Q 0.7406092529296875 1.7209125 0.7046092529296875 1.7209125 Q 0.6686092529296874 1.7209125 0.6419842529296874 1.7452874999999999 M 1.239003662109375 1.7186625 Q 1.239003662109375 1.7231625 1.237503662109375 1.7231625 Q 1.215753662109375 1.7231625 1.200378662109375 1.7355375 Q 1.185003662109375 1.7479125 1.173003662109375 1.7779125 L 1.0597536621093748 2.0644125 Q 1.059003662109375 2.0674125 1.051503662109375 2.0674125 Q 1.044003662109375 2.0674125 1.0432536621093749 2.0644125 L 0.9067536621093749 1.7764125 Q 0.8917536621093749 1.7449125 0.8805036621093749 1.7340375 Q 0.8692536621093749 1.7231625 0.849753662109375 1.7231625 Q 0.8475036621093749 1.7231625 0.8475036621093749 1.7186625 Q 0.8475036621093749 1.7141625 0.849753662109375 1.7141625 L 0.8782536621093749 1.7149125 Q 0.899253662109375 1.7164125000000001 0.911253662109375 1.7164125000000001 Q 0.9300036621093749 1.7164125000000001 0.9570036621093749 1.7149125 L 0.987003662109375 1.7141625 Q 0.9885036621093749 1.7141625 0.9885036621093749 1.7186625 Q 0.9885036621093749 1.7231625 0.987003662109375 1.7231625 Q 0.9480036621093749 1.7231625 0.9480036621093749 1.7464125 Q 0.9480036621093749 1.7546625 0.9540036621093749 1.7689124999999999 L 1.068753662109375 2.0059125 L 1.157253662109375 1.7734125 Q 1.162503662109375 1.7576625 1.162503662109375 1.7509125 Q 1.162503662109375 1.7231625 1.1122536621093748 1.7231625 Q 1.110003662109375 1.7231625 1.110003662109375 1.7186625 Q 1.110003662109375 1.7141625 1.1122536621093748 1.7141625 L 1.139253662109375 1.7149125 Q 1.161753662109375 1.7164125000000001 1.179753662109375 1.7164125000000001 Q 1.191753662109375 1.7164125000000001 1.209753662109375 1.7149125 L 1.237503662109375 1.7141625 Q 1.239003662109375 1.7141625 1.239003662109375 1.7186625 M 1.5423684082031248 2.0246625 Q 1.544618408203125 2.0246625 1.5464934082031248 2.0272875 Q 1.5483684082031248 2.0299125 1.5468684082031248 2.0321625 Q 1.4936184082031247 2.0741625 1.4306184082031248 2.0741625 Q 1.3773684082031248 2.0741625 1.3394934082031247 2.0490375 Q 1.3016184082031248 2.0239125000000002 1.2824934082031247 1.9834125 Q 1.2633684082031247 1.9429125 1.2633684082031247 1.8964125 Q 1.2633684082031247 1.8446625 1.2881184082031247 1.8007875 Q 1.3128684082031248 1.7569124999999999 1.3541184082031248 1.7314125 Q 1.3953684082031248 1.7059125 1.4441184082031249 1.7059125 Q 1.4943684082031248 1.7059125 1.5198684082031249 1.7336624999999999 Q 1.5453684082031247 1.7614125 1.5453684082031247 1.8086625 Q 1.5453684082031247 1.8161625 1.5434934082031249 1.8195375 Q 1.5416184082031248 1.8229125 1.5363684082031248 1.8229125 L 1.3181184082031248 1.8236625 Q 1.3136184082031248 1.8446625 1.3136184082031248 1.8701625 Q 1.3136184082031248 1.9211624999999999 1.3308684082031248 1.9620375 Q 1.3481184082031248 2.0029125 1.3807434082031247 2.0261625 Q 1.4133684082031248 2.0494125 1.4576184082031247 2.0494125 Q 1.5078684082031248 2.0494125 1.5416184082031248 2.0246625 L 1.5423684082031248 2.0246625 M 1.3582434082031247 1.7452874999999999 Q 1.3316184082031248 1.7696625 1.3203684082031248 1.8124125 L 1.4928684082031247 1.8094125 Q 1.4936184082031247 1.7666625 1.4752434082031247 1.7437875 Q 1.4568684082031247 1.7209125 1.4208684082031247 1.7209125 Q 1.3848684082031248 1.7209125 1.3582434082031247 1.7452874999999999 M 1.6950128173828123 2.0014125 Q 1.6950128173828123 2.0231625 1.6991378173828124 2.0336625 Q 1.7032628173828124 2.0441625 1.7148878173828124 2.0486625 Q 1.7265128173828124 2.0531625 1.7497628173828124 2.0531625 L 1.7992628173828122 2.0531625 Q 1.8390128173828124 2.0531625 1.8626378173828124 2.0284125 Q 1.8862628173828124 2.0036625 1.8945128173828123 1.9601625 Q 1.8945128173828123 1.9586625 1.8975128173828124 1.9586625 Q 1.8997628173828123 1.9586625 1.9016378173828123 1.9594125 Q 1.9035128173828124 1.9601625 1.9035128173828124 1.9616625 Q 1.8982628173828124 1.9961625 1.8982628173828124 2.0539125 Q 1.8982628173828124 2.0599125 1.8956378173828123 2.0625375 Q 1.8930128173828122 2.0651625 1.8870128173828125 2.0651625 L 1.5937628173828124 2.0651625 Q 1.5922628173828124 2.0651625 1.5922628173828124 2.0606625 Q 1.5922628173828124 2.0561625 1.5937628173828124 2.0561625 Q 1.6185128173828123 2.0561625 1.6297628173828123 2.0524125 Q 1.6410128173828122 2.0486625 1.6447628173828124 2.0377875 Q 1.6485128173828123 2.0269125 1.6485128173828123 2.0044125 L 1.6485128173828123 1.7749125000000001 Q 1.6485128173828123 1.7524125 1.6443878173828124 1.7419125 Q 1.6402628173828124 1.7314125 1.6290128173828125 1.7272875 Q 1.6177628173828122 1.7231625 1.5937628173828124 1.7231625 Q 1.5922628173828124 1.7231625 1.5922628173828124 1.7186625 Q 1.5922628173828124 1.7141625 1.5937628173828124 1.7141625 L 1.6275128173828124 1.7149125 Q 1.6560128173828124 1.7164125000000001 1.6717628173828123 1.7164125000000001 Q 1.6905128173828123 1.7164125000000001 1.7190128173828123 1.7149125 L 1.7505128173828124 1.7141625 Q 1.7527628173828123 1.7141625 1.7527628173828123 1.7186625 Q 1.7527628173828123 1.7231625 1.7505128173828124 1.7231625 Q 1.7257628173828123 1.7231625 1.7145128173828124 1.7272875 Q 1.7032628173828124 1.7314125 1.6991378173828124 1.7422875 Q 1.6950128173828123 1.7531625 1.6950128173828123 1.7756625000000001 L 1.6950128173828123 2.0014125 M 2.0295223388671872 2.0494125 Q 1.9886473388671875 2.0246625 1.9661473388671875 1.9826625 Q 1.9436473388671873 1.9406625 1.9436473388671873 1.8919125 Q 1.9436473388671873 1.8334125000000001 1.9740223388671874 1.7910375 Q 2.0043973388671876 1.7486625 2.0512723388671876 1.7269125 Q 2.0981473388671876 1.7051625000000001 2.1468973388671873 1.7051625000000001 Q 2.1993973388671875 1.7051625000000001 2.2395223388671877 1.7310375 Q 2.2796473388671874 1.7569124999999999 2.3010223388671873 1.7981625 Q 2.3223973388671872 1.8394125 2.3223973388671872 1.8844125 Q 2.3223973388671872 1.9346625 2.2953973388671876 1.9785375 Q 2.2683973388671874 2.0224125 2.2226473388671875 2.0482875 Q 2.1768973388671875 2.0741625 2.1228973388671872 2.0741625 Q 2.0703973388671875 2.0741625 2.0295223388671872 2.0494125 M 2.2357723388671875 2.0171625 Q 2.2706473388671875 1.9759125 2.2706473388671875 1.9031625 Q 2.2706473388671875 1.8529125 2.2530223388671873 1.8116625 Q 2.2353973388671875 1.7704125 2.2016473388671876 1.7456625 Q 2.1678973388671876 1.7209125 2.1213973388671876 1.7209125 Q 2.0613973388671876 1.7209125 2.028397338867187 1.7610375 Q 1.9953973388671875 1.8011625 1.9953973388671875 1.8731625 Q 1.9953973388671875 1.9249125 2.0130223388671875 1.9669125 Q 2.0306473388671873 2.0089125 2.0640223388671872 2.0336625 Q 2.0973973388671876 2.0584125 2.1423973388671875 2.0584125 Q 2.2008973388671875 2.0584125 2.2357723388671875 2.0171625 M 2.4840421142578126 2.0362875 Q 2.4892921142578124 2.0471625 2.5046671142578125 2.0516625 Q 2.5200421142578127 2.0561625 2.5530421142578126 2.0561625 Q 2.5552921142578127 2.0561625 2.5552921142578127 2.0606625 Q 2.5552921142578127 2.0651625 2.5530421142578126 2.0651625 Q 2.5260421142578124 2.0651625 2.5117921142578123 2.0644125 L 2.4562921142578125 2.0636625 L 2.4120421142578126 2.0644125 Q 2.3992921142578125 2.0651625 2.3775421142578126 2.0651625 Q 2.3760421142578125 2.0651625 2.3760421142578125 2.0606625 Q 2.3760421142578125 2.0561625 2.3775421142578126 2.0561625 Q 2.4022921142578126 2.0561625 2.4135421142578126 2.0524125 Q 2.4247921142578126 2.0486625 2.4289171142578123 2.0377875 Q 2.4330421142578125 2.0269125 2.4330421142578125 2.0044125 L 2.4330421142578125 1.7749125000000001 Q 2.4330421142578125 1.7524125 2.4289171142578123 1.7419125 Q 2.4247921142578126 1.7314125 2.4131671142578126 1.7272875 Q 2.4015421142578126 1.7231625 2.3775421142578126 1.7231625 Q 2.3760421142578125 1.7231625 2.3760421142578125 1.7186625 Q 2.3760421142578125 1.7141625 2.3775421142578126 1.7141625 L 2.4112921142578125 1.7149125 Q 2.4397921142578123 1.7164125000000001 2.4555421142578124 1.7164125000000001 Q 2.4682921142578125 1.7164125000000001 2.4799171142578125 1.7156625 Q 2.4915421142578125 1.7149125 2.4997921142578123 1.7141625 Q 2.5230421142578123 1.7119125 2.5432921142578127 1.7119125 Q 2.6670421142578125 1.7119125 2.6670421142578125 1.8034125 Q 2.6670421142578125 1.8394125 2.6486671142578126 1.8637875 Q 2.6302921142578124 1.8881625 2.6021671142578127 1.9001625 Q 2.5740421142578125 1.9121625 2.5440421142578127 1.9121625 Q 2.5237921142578124 1.9121625 2.5110421142578123 1.9091625 Q 2.5095421142578127 1.9091625 2.5095421142578127 1.9054125 Q 2.5095421142578127 1.8994125 2.5132921142578124 1.8994125 Q 2.5245421142578124 1.9016625 2.5365421142578124 1.9016625 Q 2.5695421142578123 1.9016625 2.5924171142578123 1.8802875000000001 Q 2.6152921142578123 1.8589125 2.6152921142578123 1.8184125 Q 2.6152921142578123 1.7711625 2.5909171142578127 1.7467875 Q 2.5665421142578126 1.7224125 2.5252921142578124 1.7224125 Q 2.5065421142578126 1.7224125 2.4971671142578127 1.7254125 Q 2.4877921142578123 1.7284125000000001 2.4832921142578126 1.7396625000000001 Q 2.4787921142578124 1.7509125 2.4787921142578124 1.7764125 L 2.4787921142578124 2.0014125 Q 2.4787921142578124 2.0254125 2.4840421142578126 2.0362875 M 2.8323984375 2.0362875 Q 2.8376484375 2.0471625 2.8530234375 2.0516625 Q 2.8683984375000002 2.0561625 2.9013984375 2.0561625 Q 2.9036484375000002 2.0561625 2.9036484375000002 2.0606625 Q 2.9036484375000002 2.0651625 2.9013984375 2.0651625 Q 2.8743984375 2.0651625 2.8601484375 2.0644125 L 2.8046484375 2.0636625 L 2.7603984375 2.0644125 Q 2.7476484375 2.0651625 2.7258984375 2.0651625 Q 2.7243984375 2.0651625 2.7243984375 2.0606625 Q 2.7243984375 2.0561625 2.7258984375 2.0561625 Q 2.7506484375 2.0561625 2.7618984375 2.0524125 Q 2.7731484375 2.0486625 2.7772734375 2.0377875 Q 2.7813984375 2.0269125 2.7813984375 2.0044125 L 2.7813984375 1.7749125000000001 Q 2.7813984375 1.7524125 2.7772734375 1.7419125 Q 2.7731484375 1.7314125 2.7615234375 1.7272875 Q 2.7498984375 1.7231625 2.7258984375 1.7231625 Q 2.7243984375 1.7231625 2.7243984375 1.7186625 Q 2.7243984375 1.7141625 2.7258984375 1.7141625 L 2.7596484375 1.7149125 Q 2.7881484375 1.7164125000000001 2.8038984375 1.7164125000000001 Q 2.8166484375 1.7164125000000001 2.8282734375 1.7156625 Q 2.8398984375 1.7149125 2.8481484375 1.7141625 Q 2.8713984375 1.7119125 2.8916484375000002 1.7119125 Q 3.0153984375 1.7119125 3.0153984375 1.8034125 Q 3.0153984375 1.8394125 2.9970234375 1.8637875 Q 2.9786484375 1.8881625 2.9505234375000002 1.9001625 Q 2.9223984375 1.9121625 2.8923984375000003 1.9121625 Q 2.8721484375 1.9121625 2.8593984375 1.9091625 Q 2.8578984375000003 1.9091625 2.8578984375000003 1.9054125 Q 2.8578984375000003 1.8994125 2.8616484375 1.8994125 Q 2.8728984375 1.9016625 2.8848984375 1.9016625 Q 2.9178984375 1.9016625 2.9407734375 1.8802875000000001 Q 2.9636484375 1.8589125 2.9636484375 1.8184125 Q 2.9636484375 1.7711625 2.9392734375000003 1.7467875 Q 2.9148984375 1.7224125 2.8736484375 1.7224125 Q 2.8548984375 1.7224125 2.8455234375000003 1.7254125 Q 2.8361484375 1.7284125000000001 2.8316484375 1.7396625000000001 Q 2.8271484375 1.7509125 2.8271484375 1.7764125 L 2.8271484375 2.0014125 Q 2.8271484375 2.0254125 2.8323984375 2.0362875 M 3.3540047607421877 2.0246625 Q 3.3562547607421878 2.0246625 3.3581297607421874 2.0272875 Q 3.3600047607421875 2.0299125 3.3585047607421874 2.0321625 Q 3.3052547607421876 2.0741625 3.2422547607421874 2.0741625 Q 3.1890047607421876 2.0741625 3.1511297607421875 2.0490375 Q 3.1132547607421874 2.0239125000000002 3.0941297607421876 1.9834125 Q 3.0750047607421878 1.9429125 3.0750047607421878 1.8964125 Q 3.0750047607421878 1.8446625 3.099754760742188 1.8007875 Q 3.1245047607421874 1.7569124999999999 3.1657547607421876 1.7314125 Q 3.2070047607421874 1.7059125 3.2557547607421875 1.7059125 Q 3.3060047607421876 1.7059125 3.3315047607421877 1.7336624999999999 Q 3.357004760742188 1.7614125 3.357004760742188 1.8086625 Q 3.357004760742188 1.8161625 3.3551297607421877 1.8195375 Q 3.3532547607421876 1.8229125 3.3480047607421874 1.8229125 L 3.1297547607421876 1.8236625 Q 3.1252547607421874 1.8446625 3.1252547607421874 1.8701625 Q 3.1252547607421874 1.9211624999999999 3.1425047607421877 1.9620375 Q 3.1597547607421874 2.0029125 3.1923797607421878 2.0261625 Q 3.2250047607421877 2.0494125 3.2692547607421876 2.0494125 Q 3.3195047607421877 2.0494125 3.3532547607421876 2.0246625 L 3.3540047607421877 2.0246625 M 3.169879760742188 1.7452874999999999 Q 3.1432547607421877 1.7696625 3.1320047607421877 1.8124125 L 3.3045047607421876 1.8094125 Q 3.3052547607421876 1.7666625 3.286879760742188 1.7437875 Q 3.2685047607421875 1.7209125 3.2325047607421875 1.7209125 Q 3.1965047607421875 1.7209125 3.169879760742188 1.7452874999999999 M 3.8163991699218753 1.7186625 Q 3.8163991699218753 1.7231625 3.8148991699218753 1.7231625 Q 3.7901491699218752 1.7231625 3.7785241699218752 1.7272875 Q 3.7668991699218752 1.7314125 3.762399169921875 1.7419125 Q 3.7578991699218753 1.7524125 3.7578991699218753 1.7749125000000001 L 3.7578991699218753 2.0044125 Q 3.7578991699218753 2.0269125 3.762024169921875 2.0377875 Q 3.766149169921875 2.0486625 3.777399169921875 2.0524125 Q 3.788649169921875 2.0561625 3.812649169921875 2.0561625 Q 3.8148991699218753 2.0561625 3.8148991699218753 2.0606625 Q 3.8148991699218753 2.0651625 3.812649169921875 2.0651625 L 3.763899169921875 2.0644125 L 3.726399169921875 2.0651625 Q 3.717399169921875 2.0651625 3.715149169921875 2.0629125 Q 3.712899169921875 2.0606625 3.712899169921875 2.0509125 L 3.712899169921875 2.0074125 Q 3.6783991699218754 2.0419125 3.643524169921875 2.0580375 Q 3.608649169921875 2.0741625 3.5703991699218753 2.0741625 Q 3.517149169921875 2.0741625 3.482274169921875 2.0460375 Q 3.447399169921875 2.0179125 3.447399169921875 1.9684125 L 3.447399169921875 1.7749125000000001 Q 3.447399169921875 1.7524125 3.444024169921875 1.7419125 Q 3.4406491699218753 1.7314125 3.4312741699218754 1.7272875 Q 3.421899169921875 1.7231625 3.401649169921875 1.7231625 Q 3.400149169921875 1.7231625 3.400149169921875 1.7186625 Q 3.400149169921875 1.7141625 3.401649169921875 1.7141625 L 3.4308991699218754 1.7149125 Q 3.456399169921875 1.7164125000000001 3.469899169921875 1.7164125000000001 Q 3.4886491699218753 1.7164125000000001 3.517149169921875 1.7149125 L 3.5478991699218754 1.7141625 Q 3.549399169921875 1.7141625 3.549399169921875 1.7186625 Q 3.549399169921875 1.7231625 3.5478991699218754 1.7231625 Q 3.5238991699218754 1.7231625 3.5122741699218754 1.7276625 Q 3.5006491699218754 1.7321625 3.496524169921875 1.7430375 Q 3.492399169921875 1.7539125 3.492399169921875 1.7764125 L 3.492399169921875 1.9429125 Q 3.492399169921875 2.0539125 3.590649169921875 2.0539125 Q 3.623649169921875 2.0539125 3.6525241699218753 2.0396625 Q 3.681399169921875 2.0254125 3.712899169921875 1.9924125 L 3.712899169921875 1.7764125 Q 3.712899169921875 1.7539125 3.7091491699218753 1.7430375 Q 3.705399169921875 1.7321625 3.694149169921875 1.7276625 Q 3.682899169921875 1.7231625 3.658899169921875 1.7231625 Q 3.657399169921875 1.7231625 3.657399169921875 1.7186625 Q 3.657399169921875 1.7141625 3.658899169921875 1.7141625 L 3.691899169921875 1.7149125 Q 3.7203991699218752 1.7164125000000001 3.737649169921875 1.7164125000000001 Q 3.753399169921875 1.7164125000000001 3.7818991699218754 1.7149125 L 3.8148991699218753 1.7141625 Q 3.8163991699218753 1.7141625 3.8163991699218753 1.7186625 M 3.9431700439453126 1.8142875 Q 3.9547950439453126 1.8311625 3.9720450439453128 1.8424125 Q 3.9892950439453125 1.8536625 4.017795043945313 1.8686625000000001 Q 4.048545043945313 1.8851625 4.067295043945313 1.8975375 Q 4.086045043945313 1.9099125 4.098795043945313 1.9286625 Q 4.111545043945313 1.9474125 4.111545043945313 1.9736625 Q 4.111545043945313 2.0014125 4.096170043945313 2.0242875 Q 4.0807950439453125 2.0471625 4.052295043945313 2.0606625 Q 4.023795043945313 2.0741625 3.985545043945313 2.0741625 Q 3.930795043945313 2.0741625 3.894795043945313 2.0479125 Q 3.891045043945313 2.0464125 3.8899200439453128 2.0434125 Q 3.8887950439453127 2.0404125 3.8880450439453127 2.0336625 L 3.880545043945313 1.9594125 Q 3.879795043945313 1.9564125 3.883920043945313 1.9556625 Q 3.8880450439453127 1.9549125 3.8895450439453128 1.9579125 Q 3.9000450439453127 2.0014125 3.9311700439453126 2.0317875 Q 3.962295043945313 2.0621625 4.000545043945313 2.0621625 Q 4.026795043945313 2.0621625 4.045920043945313 2.0467875 Q 4.065045043945313 2.0314125 4.065045043945313 1.9991625 Q 4.065045043945313 1.9646625 4.042545043945313 1.9429125 Q 4.020045043945313 1.9211624999999999 3.977295043945313 1.8986625 Q 3.9472950439453127 1.8821625 3.929670043945313 1.8697875 Q 3.9120450439453127 1.8574125 3.9000450439453127 1.8394125 Q 3.8880450439453127 1.8214125 3.8880450439453127 1.7959125 Q 3.8880450439453127 1.7531625 3.9210450439453126 1.7291625 Q 3.954045043945313 1.7051625000000001 4.001295043945313 1.7051625000000001 Q 4.041045043945313 1.7051625000000001 4.076295043945313 1.7224125 Q 4.0830450439453125 1.7261625 4.084920043945313 1.7280375000000001 Q 4.086795043945313 1.7299125 4.087545043945313 1.7351625 L 4.092795043945313 1.8004125 Q 4.092795043945313 1.8034125 4.088670043945313 1.8041625 Q 4.084545043945313 1.8049125 4.083795043945313 1.8019125 Q 4.080045043945312 1.7831625 4.066920043945313 1.7632875000000001 Q 4.053795043945312 1.7434125 4.033170043945312 1.7299125 Q 4.0125450439453125 1.7164125000000001 3.987795043945313 1.7164125000000001 Q 3.960795043945313 1.7164125000000001 3.9461700439453127 1.7329125 Q 3.9315450439453126 1.7494125 3.9315450439453126 1.7749125000000001 Q 3.9315450439453126 1.7974125 3.9431700439453126 1.8142875 M 4.445674072265625 2.0246625 Q 4.447924072265625 2.0246625 4.449799072265625 2.0272875 Q 4.451674072265625 2.0299125 4.450174072265625 2.0321625 Q 4.396924072265625 2.0741625 4.333924072265625 2.0741625 Q 4.280674072265625 2.0741625 4.242799072265625 2.0490375 Q 4.204924072265625 2.0239125000000002 4.185799072265625 1.9834125 Q 4.166674072265625 1.9429125 4.166674072265625 1.8964125 Q 4.166674072265625 1.8446625 4.191424072265625 1.8007875 Q 4.216174072265625 1.7569124999999999 4.257424072265625 1.7314125 Q 4.298674072265625 1.7059125 4.347424072265625 1.7059125 Q 4.397674072265625 1.7059125 4.423174072265625 1.7336624999999999 Q 4.448674072265625 1.7614125 4.448674072265625 1.8086625 Q 4.448674072265625 1.8161625 4.446799072265625 1.8195375 Q 4.444924072265625 1.8229125 4.439674072265625 1.8229125 L 4.221424072265625 1.8236625 Q 4.216924072265625 1.8446625 4.216924072265625 1.8701625 Q 4.216924072265625 1.9211624999999999 4.234174072265625 1.9620375 Q 4.251424072265625 2.0029125 4.284049072265625 2.0261625 Q 4.3166740722656245 2.0494125 4.360924072265625 2.0494125 Q 4.4111740722656245 2.0494125 4.444924072265625 2.0246625 L 4.445674072265625 2.0246625 M 4.261549072265625 1.7452874999999999 Q 4.234924072265625 1.7696625 4.2236740722656245 1.8124125 L 4.396174072265625 1.8094125 Q 4.396924072265625 1.7666625 4.378549072265625 1.7437875 Q 4.360174072265625 1.7209125 4.324174072265625 1.7209125 Q 4.288174072265625 1.7209125 4.261549072265625 1.7452874999999999 M 5.193450073242188 1.7186625 Q 5.193450073242188 1.7231625 5.191200073242188 1.7231625 Q 5.168700073242188 1.7231625 5.152950073242188 1.7359125 Q 5.137200073242187 1.7486625 5.123700073242188 1.7816625 L 5.011950073242188 2.0644125 Q 5.011200073242188 2.0674125 5.003700073242188 2.0674125 Q 4.996200073242187 2.0674125 4.995450073242187 2.0644125 L 4.920450073242187 1.9069125 L 4.856700073242187 2.0644125 Q 4.855950073242187 2.0674125 4.848450073242187 2.0674125 Q 4.840950073242188 2.0674125 4.840200073242188 2.0644125 L 4.703700073242188 1.7764125 Q 4.688700073242187 1.7449125 4.677450073242188 1.7340375 Q 4.666200073242187 1.7231625 4.6467000732421875 1.7231625 Q 4.644450073242187 1.7231625 4.644450073242187 1.7186625 Q 4.644450073242187 1.7141625 4.6467000732421875 1.7141625 L 4.675950073242188 1.7149125 Q 4.6954500732421875 1.7164125000000001 4.704450073242188 1.7164125000000001 Q 4.720200073242188 1.7164125000000001 4.7412000732421875 1.7149125 L 4.762200073242187 1.7141625 Q 4.7637000732421875 1.7141625 4.7637000732421875 1.7186625 Q 4.7637000732421875 1.7231625 4.762200073242187 1.7231625 Q 4.753200073242188 1.7231625 4.747575073242188 1.7280375000000001 Q 4.7419500732421875 1.7329125 4.7419500732421875 1.7426625 Q 4.7419500732421875 1.7531625 4.749450073242188 1.7689124999999999 L 4.866450073242188 2.0081625 L 4.912200073242188 1.8896625 L 4.8589500732421875 1.7764125 Q 4.843200073242188 1.7434125 4.8342000732421875 1.7332874999999999 Q 4.825200073242187 1.7231625 4.807950073242187 1.7231625 Q 4.806450073242187 1.7231625 4.806450073242187 1.7186625 Q 4.806450073242187 1.7141625 4.807950073242187 1.7141625 L 4.832700073242187 1.7149125 Q 4.850700073242187 1.7164125000000001 4.861200073242188 1.7164125000000001 Q 4.873950073242187 1.7164125000000001 4.890450073242188 1.7149125 L 4.908450073242188 1.7141625 Q 4.909950073242188 1.7141625 4.909950073242188 1.7186625 Q 4.909950073242188 1.7231625 4.908450073242188 1.7231625 Q 4.898700073242187 1.7231625 4.894575073242187 1.7246625 Q 4.890450073242188 1.7261625 4.890450073242188 1.7314125 Q 4.890450073242188 1.7396625000000001 4.9047000732421875 1.7689124999999999 L 4.939200073242188 1.8401625 L 4.963950073242188 1.7734125 Q 4.972950073242187 1.7494125 4.972950073242187 1.7381625 Q 4.972950073242187 1.7299125 4.968450073242187 1.7265375 Q 4.963950073242188 1.7231625 4.954200073242188 1.7231625 Q 4.9519500732421875 1.7231625 4.9519500732421875 1.7186625 Q 4.9519500732421875 1.7141625 4.954200073242188 1.7141625 Q 4.960950073242188 1.7141625 4.970700073242187 1.7152875 Q 4.980450073242188 1.7164125000000001 4.988700073242187 1.7164125000000001 Q 5.002200073242188 1.7164125000000001 5.018700073242187 1.7149125 L 5.044200073242187 1.7141625 Q 5.0464500732421875 1.7141625 5.0464500732421875 1.7186625 Q 5.0464500732421875 1.7231625 5.044200073242187 1.7231625 Q 5.0209500732421875 1.7231625 5.005950073242188 1.7344125 Q 4.990950073242187 1.7456625 4.978200073242188 1.7779125 L 4.947450073242187 1.8566625 L 5.0209500732421875 2.0089125 L 5.107950073242187 1.7779125 Q 5.113950073242187 1.7629125 5.113950073242187 1.7494125 Q 5.113950073242187 1.7231625 5.082450073242187 1.7231625 Q 5.080950073242188 1.7231625 5.080950073242188 1.7186625 Q 5.080950073242188 1.7141625 5.082450073242187 1.7141625 L 5.103450073242188 1.7149125 Q 5.118450073242188 1.7164125000000001 5.131950073242187 1.7164125000000001 Q 5.145450073242188 1.7164125000000001 5.1634500732421875 1.7149125 L 5.191200073242188 1.7141625 Q 5.193450073242188 1.7141625 5.193450073242188 1.7186625 M 5.496831298828125 2.0246625 Q 5.499081298828125 2.0246625 5.500956298828125 2.0272875 Q 5.502831298828125 2.0299125 5.501331298828125 2.0321625 Q 5.448081298828125 2.0741625 5.385081298828125 2.0741625 Q 5.331831298828125 2.0741625 5.2939562988281255 2.0490375 Q 5.256081298828125 2.0239125000000002 5.236956298828125 1.9834125 Q 5.217831298828125 1.9429125 5.217831298828125 1.8964125 Q 5.217831298828125 1.8446625 5.242581298828125 1.8007875 Q 5.267331298828125 1.7569124999999999 5.308581298828125 1.7314125 Q 5.349831298828125 1.7059125 5.398581298828125 1.7059125 Q 5.448831298828125 1.7059125 5.474331298828125 1.7336624999999999 Q 5.499831298828125 1.7614125 5.499831298828125 1.8086625 Q 5.499831298828125 1.8161625 5.497956298828125 1.8195375 Q 5.496081298828125 1.8229125 5.490831298828125 1.8229125 L 5.2725812988281255 1.8236625 Q 5.268081298828125 1.8446625 5.268081298828125 1.8701625 Q 5.268081298828125 1.9211624999999999 5.285331298828125 1.9620375 Q 5.302581298828125 2.0029125 5.335206298828125 2.0261625 Q 5.367831298828125 2.0494125 5.4120812988281255 2.0494125 Q 5.462331298828125 2.0494125 5.496081298828125 2.0246625 L 5.496831298828125 2.0246625 M 5.312706298828125 1.7452874999999999 Q 5.286081298828125 1.7696625 5.274831298828125 1.8124125 L 5.447331298828125 1.8094125 Q 5.448081298828125 1.7666625 5.429706298828125 1.7437875 Q 5.4113312988281255 1.7209125 5.375331298828125 1.7209125 Q 5.339331298828125 1.7209125 5.312706298828125 1.7452874999999999 M 5.837725708007813 1.8964125 Q 5.866975708007812 1.9181625 5.866975708007812 1.9586625 Q 5.866975708007812 2.0074125 5.827975708007813 2.0377875 Q 5.788975708007813 2.0681625 5.7274757080078125 2.0681625 Q 5.707975708007813 2.0681625 5.6817257080078125 2.0659125 Q 5.671225708007813 2.0651625 5.6569757080078125 2.0644125 Q 5.642725708007813 2.0636625 5.626225708007813 2.0636625 L 5.582725708007812 2.0644125 Q 5.569975708007813 2.0651625 5.548225708007813 2.0651625 Q 5.546725708007813 2.0651625 5.546725708007813 2.0606625 Q 5.546725708007813 2.0561625 5.548225708007813 2.0561625 Q 5.573725708007813 2.0561625 5.585350708007812 2.0524125 Q 5.596975708007813 2.0486625 5.601100708007813 2.0377875 Q 5.605225708007812 2.0269125 5.605225708007812 2.0044125 L 5.605225708007812 1.7749125000000001 Q 5.605225708007812 1.7524125 5.601100708007813 1.7419125 Q 5.596975708007813 1.7314125 5.585350708007812 1.7272875 Q 5.573725708007813 1.7231625 5.548975708007813 1.7231625 Q 5.547475708007813 1.7231625 5.547475708007813 1.7186625 Q 5.547475708007813 1.7141625 5.548975708007813 1.7141625 L 5.582725708007812 1.7149125 Q 5.6112257080078125 1.7164125000000001 5.626225708007813 1.7164125000000001 Q 5.646475708007813 1.7164125000000001 5.667475708007813 1.7141625 Q 5.674975708007812 1.7134125 5.688850708007813 1.7126625 Q 5.702725708007812 1.7119125 5.713225708007813 1.7119125 Q 5.767225708007813 1.7119125 5.7972257080078125 1.7314125 Q 5.827225708007813 1.7509125 5.827225708007813 1.7861625 Q 5.827225708007813 1.8154125 5.807725708007813 1.8375375 Q 5.788225708007813 1.8596625 5.754475708007813 1.8709125 Q 5.808475708007813 1.8746625 5.837725708007813 1.8964125 M 5.666725708007813 1.7257875 Q 5.6577257080078125 1.7299125 5.653975708007812 1.7415375 Q 5.650225708007813 1.7531625 5.650225708007813 1.7764125 L 5.650225708007813 1.8709125 Q 5.662975708007813 1.8716625 5.686225708007813 1.8716625 Q 5.735725708007813 1.8716625 5.757850708007813 1.8577875 Q 5.779975708007813 1.8439125 5.779975708007813 1.8019125 Q 5.779975708007813 1.7599125 5.758225708007813 1.7407875 Q 5.736475708007813 1.7216624999999999 5.693725708007813 1.7216624999999999 Q 5.675725708007812 1.7216624999999999 5.666725708007813 1.7257875 M 5.817475708007812 1.9759125 Q 5.817475708007812 1.9331625 5.785975708007813 1.9084125 Q 5.754475708007813 1.8836625 5.689225708007813 1.8836625 Q 5.662975708007813 1.8836625 5.650225708007813 1.8851625 L 5.650225708007813 2.0044125 Q 5.650225708007813 2.0329125 5.663350708007813 2.0445375 Q 5.676475708007812 2.0561625 5.713975708007813 2.0561625 Q 5.817475708007812 2.0561625 5.817475708007812 1.9759125" fill="#382d5e" fill-rule="nonzero"></path></g></g><defs><clipPath id="SvgjsClipPath1002"><path d=" M 1.2310501986658835 -3.6833646905588573 h 3.4333646905588573 v 3.4333646905588573 h -3.4333646905588573 Z"></path></clipPath><clipPath id="SvgjsClipPath100076b27e4e-3e08-4dfa-a3a2-eea7eabfc27e"><path d=" M 1.2310501986658835 -3.6833646905588573 L 4.664414889224741 -3.6833646905588573 L 4.664414889224741 -0.25 L 1.2310501986658835 -0.25 Z"></path></clipPath></defs></svg>